<?xml version="1.0" encoding="UTF-8"?>
<svg version="1.1" xmlns="http://www.w3.org/2000/svg" width="229" height="229">
<path d="M0 0 C1.07461739 0.00539291 1.07461739 0.00539291 2.17094421 0.01089478 C2.92211517 0.01074875 3.67328613 0.01060272 4.44721985 0.01045227 C6.94166404 0.01115153 9.43603448 0.01894452 11.9304657 0.02676392 C13.65539509 0.02862805 15.38032501 0.03005197 17.10525513 0.03105164 C21.65418448 0.03487719 26.20308211 0.04470779 30.7519989 0.05575562 C35.39025951 0.06596893 40.02852522 0.07054908 44.66679382 0.07559204 C53.77422967 0.08633003 62.88164192 0.1034069 71.98905945 0.12442017 C72.26491882 0.92234985 72.5407782 1.72027954 72.82499695 2.54238892 C73.76787923 5.35923115 73.76787923 5.35923115 76.61405945 6.43692017 C77.78968445 6.77723267 77.78968445 6.77723267 78.98905945 7.12442017 C79.01432835 13.94203911 79.03189189 20.75964606 79.04399109 27.57730103 C79.04903278 29.89859468 79.05586596 32.21988514 79.0644989 34.54116821 C79.07657169 37.86970811 79.08228924 41.19820619 79.0867157 44.52676392 C79.09187698 45.57154404 79.09703827 46.61632416 79.10235596 47.69276428 C79.10243149 48.65368484 79.10250702 49.61460541 79.10258484 50.60464478 C79.10480545 51.45513901 79.10702606 52.30563324 79.10931396 53.18190002 C78.98905945 55.12442017 78.98905945 55.12442017 77.98905945 56.12442017 C75.40805189 56.22481627 72.85378048 56.26059286 70.27226257 56.2538147 C69.46417648 56.25556702 68.65609039 56.25731934 67.82351685 56.25912476 C65.13909285 56.26354393 62.45473417 56.26060506 59.77030945 56.25723267 C57.91325365 56.25790569 56.05619795 56.2588757 54.19914246 56.26013184 C50.30179508 56.2616089 46.40447058 56.25945399 42.50712585 56.25479126 C37.49971445 56.24909397 32.49235664 56.25237293 27.4849472 56.25836372 C23.64866224 56.26196912 19.81239008 56.26083085 15.97610474 56.25823593 C14.12923171 56.2575666 12.28235753 56.25839529 10.43548584 56.26071548 C7.85891113 56.26324165 5.28242444 56.25940194 2.70585632 56.2538147 C1.93491135 56.25583893 1.16396637 56.25786316 0.36965942 56.25994873 C-4.896678 56.23868272 -4.896678 56.23868272 -6.01094055 55.12442017 C-6.10969225 53.44186782 -6.13892959 51.75517988 -6.14033508 50.06973267 C-6.14348724 48.99191528 -6.1466394 47.9140979 -6.14988708 46.80361938 C-6.14786285 45.63073364 -6.14583862 44.4578479 -6.14375305 43.24942017 C-6.14470978 42.05462036 -6.1456665 40.85982056 -6.14665222 39.6288147 C-6.14733426 37.09675036 -6.14547833 34.56468429 -6.14131165 32.03262329 C-6.13596376 28.14130756 -6.14125588 24.25010727 -6.1476593 20.35879517 C-6.14699852 17.90566991 -6.14571737 15.45254473 -6.14375305 12.99942017 C-6.14577728 11.82653442 -6.14780151 10.65364868 -6.14988708 9.44522095 C-6.14673492 8.36740356 -6.14358276 7.28958618 -6.14033508 6.17910767 C-6.13953949 5.22504028 -6.1387439 4.2709729 -6.13792419 3.28799438 C-5.89428626 -0.86316042 -3.60690063 0.00763676 0 0 Z M67.5789032 37.43692017 C67.03362976 37.99379517 66.48835632 38.55067017 65.92655945 39.12442017 C65.37870789 39.68129517 64.83085632 40.23817017 64.2664032 40.81192017 C63.63411804 41.46160767 63.63411804 41.46160767 62.98905945 42.12442017 C60.51405945 41.13442017 60.51405945 41.13442017 57.98905945 40.12442017 C57.57717841 43.97113489 57.57717841 43.97113489 59.36405945 45.87442017 C60.91157537 47.32765709 60.91157537 47.32765709 62.98905945 47.12442017 C64.80158645 45.44761768 64.80158645 45.44761768 66.61405945 43.31192017 C67.24570007 42.60422485 67.8773407 41.89652954 68.52812195 41.16738892 C70.27989919 39.13630864 70.27989919 39.13630864 69.98905945 36.12442017 C68.78998476 36.01086914 68.78998476 36.01086914 67.5789032 37.43692017 Z " fill="#FDFEFE" transform="translate(102.01094055175781,41.875579833984375)"/>
<path d="M0 0 C1.20366211 0.00966797 1.20366211 0.00966797 2.43164062 0.01953125 C3.26501953 0.03628906 4.09839844 0.05304688 4.95703125 0.0703125 C6.22450195 0.08384766 6.22450195 0.08384766 7.51757812 0.09765625 C9.60168368 0.12120547 11.68564342 0.15707603 13.76953125 0.1953125 C13.7835498 1.5270752 13.7835498 1.5270752 13.79785156 2.88574219 C13.84193806 6.18877169 13.90357871 9.49051257 13.97705078 12.79296875 C14.00522736 14.22058187 14.02645852 15.64835003 14.04052734 17.07617188 C14.06200517 19.13231582 14.10867099 21.18660252 14.16015625 23.2421875 C14.18110352 24.47807617 14.20205078 25.71396484 14.22363281 26.98730469 C14.88118907 30.85147697 15.7223638 31.80602909 18.76953125 34.1953125 C21.58518492 34.80905951 21.58518492 34.80905951 24.73144531 34.74121094 C25.93238831 34.76092957 27.1333313 34.78064819 28.3706665 34.80096436 C29.66244812 34.80219299 30.95422974 34.80342163 32.28515625 34.8046875 C33.62467446 34.81967276 34.96417421 34.83640065 36.3036499 34.85479736 C39.82174538 34.89844561 43.33959166 34.9184639 46.85791016 34.93353271 C50.4509961 34.95311329 54.04381327 34.99508208 57.63671875 35.03515625 C64.68088714 35.11043033 71.725036 35.16073852 78.76953125 35.1953125 C78.85663414 38.29930228 78.90995434 41.40297798 78.95703125 44.5078125 C78.98216797 45.38888672 79.00730469 46.26996094 79.03320312 47.17773438 C79.04287109 48.02529297 79.05253906 48.87285156 79.0625 49.74609375 C79.07821045 50.52637939 79.0939209 51.30666504 79.11010742 52.1105957 C78.76953125 54.1953125 78.76953125 54.1953125 77.72851562 55.95011902 C74.69991547 57.8751947 71.60827715 57.60389093 68.1328125 57.56762695 C66.96895523 57.57310295 66.96895523 57.57310295 65.78158569 57.57868958 C63.21484542 57.58680064 60.64873537 57.57318066 58.08203125 57.55859375 C56.29988607 57.55807521 54.51774032 57.55859268 52.7355957 57.56010437 C48.99975043 57.56001462 45.26412084 57.54957995 41.52832031 57.53149414 C36.73632248 57.50880688 31.9446399 57.50826259 27.15260315 57.51501179 C23.47234285 57.51835108 19.7921546 57.51172244 16.11190796 57.50188255 C14.34484229 57.49802957 12.57776862 57.49688274 10.81069946 57.4984684 C8.34239392 57.49883869 5.8744946 57.48622918 3.40625 57.4699707 C2.30740982 57.47368683 2.30740982 57.47368683 1.18637085 57.47747803 C-2.50529314 57.43861056 -4.07352967 57.29993855 -7.23046875 55.1953125 C-7.61141968 52.95617676 -7.61141968 52.95617676 -7.61865234 50.13476562 C-7.62810883 49.08027222 -7.63756531 48.02577881 -7.64730835 46.93933105 C-7.64123566 45.79661743 -7.63516296 44.65390381 -7.62890625 43.4765625 C-7.63177643 42.30774536 -7.63464661 41.13892822 -7.63760376 39.93469238 C-7.63964814 37.45987464 -7.6340923 34.98504087 -7.62158203 32.51025391 C-7.60553458 28.71089728 -7.62141909 24.91260458 -7.640625 21.11328125 C-7.63864264 18.71353931 -7.6347991 16.31379803 -7.62890625 13.9140625 C-7.63497894 12.77134888 -7.64105164 11.62863525 -7.64730835 10.45129395 C-7.63785187 9.39680054 -7.62839539 8.34230713 -7.61865234 7.25585938 C-7.61626556 6.3247937 -7.61387878 5.39372803 -7.61141968 4.43444824 C-7.48570587 3.69553345 -7.35999207 2.95661865 -7.23046875 2.1953125 C-4.12961304 0.12807536 -3.50115194 -0.04966173 0 0 Z " fill="#FDFEFE" transform="translate(78.23046875,66.8046875)"/>
<path d="M0 0 C0.83265381 0.00523682 1.66530762 0.01047363 2.52319336 0.01586914 C3.42231445 0.0190918 4.32143555 0.02231445 5.24780273 0.02563477 C6.66609375 0.03820312 6.66609375 0.03820312 8.11303711 0.05102539 C9.06243164 0.05553711 10.01182617 0.06004883 10.98999023 0.06469727 C13.34356776 0.07652429 15.69702188 0.09300514 18.05053711 0.11352539 C18.07035645 1.04213379 18.09017578 1.97074219 18.1105957 2.92749023 C18.18862324 6.36803059 18.27531173 9.8081243 18.36791992 13.24829102 C18.40623709 14.73811428 18.44108519 16.22803093 18.47241211 17.71801758 C18.5180044 19.85800587 18.57600585 21.99734975 18.63647461 24.13696289 C18.68360596 26.06934814 18.68360596 26.06934814 18.73168945 28.04077148 C18.73511979 31.21834044 18.73511979 31.21834044 21.05053711 33.11352539 C23.72019825 33.4457394 23.72019825 33.4457394 26.87719727 33.43237305 C28.70886948 33.46217758 28.70886948 33.46217758 30.57754517 33.49258423 C31.9148948 33.50446147 33.25224636 33.51612428 34.58959961 33.52758789 C35.95438823 33.54629288 37.31916521 33.56586579 38.68392944 33.58627319 C42.27759954 33.63767144 45.87130716 33.67725566 49.46514893 33.7144165 C53.13172751 33.75440818 56.79814896 33.80552249 60.46459961 33.85571289 C67.65980443 33.95256313 74.85508506 34.03693846 82.05053711 34.11352539 C82.07948936 37.40517368 82.09731941 40.69678939 82.11303711 43.98852539 C82.12141602 44.92567383 82.12979492 45.86282227 82.13842773 46.82836914 C82.14165039 47.72426758 82.14487305 48.62016602 82.14819336 49.54321289 C82.15343018 50.37062988 82.15866699 51.19804687 82.1640625 52.05053711 C82.05053711 54.11352539 82.05053711 54.11352539 81.05053711 56.11352539 C70.24595626 56.13664851 59.44138125 56.15444032 48.63678074 56.16533756 C43.62031241 56.17056646 38.60386096 56.17766422 33.58740234 56.18896484 C28.75044017 56.19979349 23.91349427 56.20580218 19.07652092 56.20840263 C17.22685426 56.21025692 15.37718853 56.21387761 13.52752876 56.21925545 C10.94606697 56.22646559 8.36467329 56.22751634 5.78320312 56.22705078 C5.0106871 56.23064606 4.23817108 56.23424133 3.44224548 56.23794556 C-1.83541073 56.22757755 -1.83541073 56.22757755 -2.94946289 55.11352539 C-3.04821459 53.43097304 -3.07745193 51.74428511 -3.07885742 50.05883789 C-3.08200958 48.98102051 -3.08516174 47.90320313 -3.08840942 46.79272461 C-3.08638519 45.61983887 -3.08436096 44.44695312 -3.08227539 43.23852539 C-3.08323212 42.04372559 -3.08418884 40.84892578 -3.08517456 39.61791992 C-3.0858566 37.08585559 -3.08400067 34.55378952 -3.07983398 32.02172852 C-3.0744861 28.13041279 -3.07977822 24.2392125 -3.08618164 20.34790039 C-3.08552086 17.89477513 -3.08423971 15.44164995 -3.08227539 12.98852539 C-3.08429962 11.81563965 -3.08632385 10.64275391 -3.08840942 9.43432617 C-3.08525726 8.35650879 -3.0821051 7.27869141 -3.07885742 6.16821289 C-3.07806183 5.21414551 -3.07726624 4.26007813 -3.07644653 3.27709961 C-2.91314553 0.49474252 -2.7844106 0.16214789 0 0 Z " fill="#FDFEFE" transform="translate(49.949462890625,92.886474609375)"/>
<path d="M0 0 C2.64 0 5.28 0 8 0 C8.33 3.3 8.66 6.6 9 10 C9.70962891 8.9171875 9.70962891 8.9171875 10.43359375 7.8125 C15.77054227 0.32204594 15.77054227 0.32204594 19.53515625 -0.6640625 C21.76757111 -0.6286835 23.81615008 -0.45496873 26 0 C22.84577733 4.82596069 19.71080883 9.57557408 16 14 C17.43708955 18.14486881 19.49035687 21.25602883 22.125 24.75 C26 29.90747331 26 29.90747331 26 31 C22.80217592 31.66621335 20.17767124 31.83236381 17 31 C13.807436 28.01188592 11.39117202 24.64865485 9 21 C8.67 24.3 8.34 27.6 8 31 C5.36 31 2.72 31 0 31 C-0.82544266 20.51052868 -1.08101063 10.49411854 0 0 Z " fill="#FCFDFD" transform="translate(49,166)"/>
<path d="M0 0 C0.33 -0.33 0.66 -0.66 1 -1 C3.31 -1 5.62 -1 8 -1 C8 7.25 8 15.5 8 24 C4.66666667 24 1.33333333 24 -2 24 C-3.3921875 24.3403125 -3.3921875 24.3403125 -4.8125 24.6875 C-8.69357211 25.06799727 -9.93810429 24.31711027 -13 22 C-15.78810449 19.61019615 -16.80548451 17.67410873 -17.23828125 13.94921875 C-17.41884627 8.44673735 -16.77654483 5.30106495 -13 1 C-8.98483814 -1.94445203 -4.55828975 -1.51942992 0 0 Z M-7 6 C-9.30163882 9.45245824 -9.34490322 10.94738713 -9 15 C-7.17296773 17.2491908 -7.17296773 17.2491908 -4.5 17.25 C-1.82703227 17.2491908 -1.82703227 17.2491908 0 15 C0.33333333 11.5 0.33333333 11.5 0 8 C-1.82915641 5.76154985 -1.82915641 5.76154985 -4.5 5.6875 C-5.325 5.790625 -6.15 5.89375 -7 6 Z " fill="#FCFDFC" transform="translate(172,173)"/>
<path d="M0 0 C2.78988693 2.39133166 3.90641275 4.43629212 5.1875 7.875 C5.1875 9.855 5.1875 11.835 5.1875 13.875 C-0.0925 13.875 -5.3725 13.875 -10.8125 13.875 C-9.09023504 17.12349977 -9.09023504 17.12349977 -5.8125 17.875 C-5.4825 17.215 -5.1525 16.555 -4.8125 15.875 C-1.85585481 14.3966774 0.92979737 14.81467217 4.1875 14.875 C3.90734352 18.23687774 3.41116109 19.63818238 1.0625 22.125 C-2.42066545 24.24518766 -4.73700648 24.80350011 -8.8125 24.875 C-13.45525364 23.23638107 -16.41694733 21.20542214 -18.8125 16.875 C-19.48848228 12.26464897 -19.37749392 8.27261655 -17.625 3.9375 C-12.68688986 -1.68172878 -6.84238552 -2.73695421 0 0 Z M-9.8125 5.875 C-10.1425 6.865 -10.4725 7.855 -10.8125 8.875 C-8.1725 8.875 -5.5325 8.875 -2.8125 8.875 C-3.1425 7.885 -3.4725 6.895 -3.8125 5.875 C-5.7925 5.875 -7.7725 5.875 -9.8125 5.875 Z " fill="#FCFCFC" transform="translate(95.8125,173.125)"/>
<path d="M0 0 C3.75212276 2.01502889 5.63644095 3.45466142 8 7 C9.41160805 12.64643218 8.86535866 15.93786637 6 21 C2.60965489 24.48197606 -0.11876268 25.90237525 -5 26 C-10.13607559 24.40604551 -13.13177307 22.58916309 -16 18 C-16 17.01 -16 16.02 -16 15 C-16.66 15 -17.32 15 -18 15 C-18 13.68 -18 12.36 -18 11 C-17.34 11 -16.68 11 -16 11 C-15.9071875 9.63875 -15.9071875 9.63875 -15.8125 8.25 C-14.80707694 4.22830776 -13.39893348 3.23832205 -10 1 C-6.78734554 -0.60632723 -3.48478188 -0.47931944 0 0 Z M-7.8125 8.625 C-9.39688122 11.79376243 -8.89669858 13.63738032 -8 17 C-6.88163776 18.34404775 -6.88163776 18.34404775 -4 18.125 C-1.11836224 18.34404775 -1.11836224 18.34404775 0 17 C0.22918242 12.98342857 0.22918242 12.98342857 0 9 C-0.66 8.34 -1.32 7.68 -2 7 C-5.90933583 6.55496999 -5.90933583 6.55496999 -7.8125 8.625 Z " fill="#FCFDFC" transform="translate(132,172)"/>
<path d="M0 0 C2.64 0 5.28 0 8 0 C8 10.89 8 21.78 8 33 C5.36 33 2.72 33 0 33 C0 22.11 0 11.22 0 0 Z " fill="#FCFDFD" transform="translate(104,164)"/>
<path d="M0 0 C2.31 0 4.62 0 7 0 C8 1 8 1 8.11352539 4.05102539 C8.11336634 5.39991271 8.10767612 6.74880614 8.09765625 8.09765625 C8.0962413 8.80651474 8.09482635 9.51537323 8.09336853 10.24571228 C8.08775443 12.51801712 8.07519963 14.79022475 8.0625 17.0625 C8.05748681 18.59960796 8.05292359 20.13671745 8.04882812 21.67382812 C8.03778042 25.44925642 8.02050641 29.22461171 8 33 C5.36 33 2.72 33 0 33 C0 22.11 0 11.22 0 0 Z " fill="#FDFEFD" transform="translate(144,164)"/>
<path d="M0 0 C2.625 -0.1875 2.625 -0.1875 5 0 C5.625 2.875 5.625 2.875 6 6 C5.34 6.66 4.68 7.32 4 8 C1.375 7.625 1.375 7.625 -1 7 C-1.625 5.1875 -1.625 5.1875 -2 3 C-1.34 2.01 -0.68 1.02 0 0 Z " fill="#747AAE" transform="translate(179,38)"/>
<path d="M0 0 C0.625 1.875 0.625 1.875 1 4 C0.34 4.66 -0.32 5.32 -1 6 C-1.99 6 -2.98 6 -4 6 C-4.33 4.68 -4.66 3.36 -5 2 C-4.34 1.67 -3.68 1.34 -3 1 C-2.01 1.33 -1.02 1.66 0 2 C0 1.34 0 0.68 0 0 Z " fill="#5A6199" transform="translate(184,40)"/>
<path d="M0 0 C0.99 0 1.98 0 3 0 C3.33 1.32 3.66 2.64 4 4 C2.68 4.33 1.36 4.66 0 5 C0 3.35 0 1.7 0 0 Z " fill="#585D7C" transform="translate(180,30)"/>
<path d="M0 0 C2.475 0.495 2.475 0.495 5 1 C5 1.66 5 2.32 5 3 C4.01 3.33 3.02 3.66 2 4 C1.34 3.67 0.68 3.34 0 3 C0 2.01 0 1.02 0 0 Z " fill="#686D8D" transform="translate(188,40)"/>
<path d="M0 0 C0.66 0 1.32 0 2 0 C2 1.32 2 2.64 2 4 C1.01 4 0.02 4 -1 4 C-0.67 2.68 -0.34 1.36 0 0 Z " fill="#6B6B8C" transform="translate(187,33)"/>
<path d="M0 0 C1 4 1 4 1 4 Z " fill="#FFFFFF" transform="translate(94,68)"/>
</svg>
